<svg width="342" height="470" viewBox="0 0 342 470" xmlns="http://www.w3.org/2000/svg"><title>sync</title><g fill-rule="nonzero" fill="#114b5f"><path d="M170.667 362.667c-70.72 0-128-57.28-128-128 0-21.653 5.44-41.92 14.827-59.84L26.347 143.68C9.813 170.133 0 201.173 0 234.667c0 94.293 76.373 170.667 170.667 170.667v64L256 384l-85.333-85.333v64zM170.667 64V0L85.334 85.333l85.333 85.333v-64c70.72 0 128 57.28 128 128 0 21.653-5.44 41.92-14.827 59.84l31.147 31.147c16.533-26.453 26.347-57.493 26.347-90.987C341.334 140.373 264.96 64 170.667 64z"/></g></svg>